<svg xmlns="http://www.w3.org/2000/svg" viewBox="0 0 120 120" width="120" height="120">
  <g fill="none" stroke="#253951" stroke-width="2.8" stroke-linecap="round" stroke-linejoin="round">
    <path d="M14 84 L40 84 L27 58 Z" />
    <circle cx="14" cy="84" r="4.5" fill="#253951" stroke="none" />
    <circle cx="40" cy="84" r="4.5" fill="#253951" stroke="none" />
    <circle cx="27" cy="58" r="4.5" fill="#253951" stroke="none" />
    <path d="M44 71 H57" />
    <path d="M57 71 l-6 -4 M57 71 l-6 4" />
    <path d="M86 44 L111 62 L101 91 L71 91 L61 62 Z" />
    <path d="M86 44 L101 91 L61 62 L111 62 L71 91 Z" />
    <circle cx="86" cy="44" r="4.5" fill="#253951" stroke="none" />
    <circle cx="111" cy="62" r="4.5" fill="#253951" stroke="none" />
    <circle cx="101" cy="91" r="4.5" fill="#253951" stroke="none" />
    <circle cx="71" cy="91" r="4.5" fill="#253951" stroke="none" />
    <circle cx="61" cy="62" r="4.5" fill="#253951" stroke="none" />
  </g>
</svg>
